CddbId:e40f5863:[150, 906, 2550, 5765, 8983, 12536, 16458, 19579, 23152, 26433, 29749, 33148, 37021, 40727, 44015, 47429, 50967, 54012, 57564, 60887, 64739, 68271, 70960, 74756, 77940, 81841, 84885, 87316, 89761, 92631, 96546, 100844, 104870, 109036, 112602, 116510, 120857, 124424, 127823, 131794, 135521, 138871, 142549, 145802, 149968, 154301, 157345, 160918, 164339, 168811, 172050, 175617, 179580, 184296, 187751, 191436, 195205, 198486, 201837, 205605, 209597, 213170, 217190, 220088, 224211, 228147, 231526, 235956, 238993, 242511, 245297, 248035, 251003, 252716, 255607, 257969, 259829, 262162, 263430, 264384, 266286, 267268, 268641, 269741, 271218, 272667, 275363, 276846, 278240, 280608, 282287, 285888, 286787, 287936, 289002, 289922, 291357, 291848, 293331]:294750:74:e40f5863 99 150 906 2550 5765 8983 12536 16458 19579 23152 26433 29749 33148 37021 40727 44015 47429 50967 54012 57564 60887 64739 68271 70960 74756 77940 81841 84885 87316 89761 92631 96546 100844 104870 109036 112602 116510 120857 124424 127823 131794 135521 138871 142549 145802 149968 154301 157345 160918 164339 168811 172050 175617 179580 184296 187751 191436 195205 198486 201837 205605 209597 213170 217190 220088 224211 228147 231526 235956 238993 242511 245297 248035 251003 252716 255607 257969 259829 262162 263430 264384 266286 267268 268641 269741 271218 272667 275363 276846 278240 280608 282287 285888 286787 287936 289002 289922 291357 291848 293331 3930: 99 0 0 0 0 0 0 0 0 0 0 0 0 0 0 0 0 0 0 0 0 0 0 0 0 0 0 0 0 0 0 0 0 0 0 0 0 0 0 0 0 0 0 0 0 0 0 0 0 0 0 0 0 0 0 0 0 0 0 0 0 0 0 0 0 0 0 0 0 0 0 0 0 0 0 0 0 0 0 0 0 0 0 0 0 0 0 0 0 0 0 0 0 0 0 0 0 0 0 0 3930
num_tracks: 99
offsets: [150, 906, 2550, 5765, 8983, 12536, 16458, 19579, 23152, 26433, 29749, 33148, 37021, 40727, 44015, 47429, 50967, 54012, 57564, 60887, 64739, 68271, 70960, 74756, 77940, 81841, 84885, 87316, 89761, 92631, 96546, 100844, 104870, 109036, 112602, 116510, 120857, 124424, 127823, 131794, 135521, 138871, 142549, 145802, 149968, 154301, 157345, 160918, 164339, 168811, 172050, 175617, 179580, 184296, 187751, 191436, 195205, 198486, 201837, 205605, 209597, 213170, 217190, 220088, 224211, 228147, 231526, 235956, 238993, 242511, 245297, 248035, 251003, 252716, 255607, 257969, 259829, 262162, 263430, 264384, 266286, 267268, 268641, 269741, 271218, 272667, 275363, 276846, 278240, 280608, 282287, 285888, 286787, 287936, 289002, 289922, 291357, 291848, 293331]
extents: [0, 0, 0, 0, 0, 0, 0, 0, 0, 0, 0, 0, 0, 0, 0, 0, 0, 0, 0, 0, 0, 0, 0, 0, 0, 0, 0, 0, 0, 0, 0, 0, 0, 0, 0, 0, 0, 0, 0, 0, 0, 0, 0, 0, 0, 0, 0, 0, 0, 0, 0, 0, 0, 0, 0, 0, 0, 0, 0, 0, 0, 0, 0, 0, 0, 0, 0, 0, 0, 0, 0, 0, 0, 0, 0, 0, 0, 0, 0, 0, 0, 0, 0, 0, 0, 0, 0, 0, 0, 0, 0, 0, 0, 0, 0, 0, 0, 0, 0]
total_length: 3930
cddb: [3826210915, 99, 150, 906, 2550, 5765, 8983, 12536, 16458, 19579, 23152, 26433, 29749, 33148, 37021, 40727, 44015, 47429, 50967, 54012, 57564, 60887, 64739, 68271, 70960, 74756, 77940, 81841, 84885, 87316, 89761, 92631, 96546, 100844, 104870, 109036, 112602, 116510, 120857, 124424, 127823, 131794, 135521, 138871, 142549, 145802, 149968, 154301, 157345, 160918, 164339, 168811, 172050, 175617, 179580, 184296, 187751, 191436, 195205, 198486, 201837, 205605, 209597, 213170, 217190, 220088, 224211, 228147, 231526, 235956, 238993, 242511, 245297, 248035, 251003, 252716, 255607, 257969, 259829, 262162, 263430, 264384, 266286, 267268, 268641, 269741, 271218, 272667, 275363, 276846, 278240, 280608, 282287, 285888, 286787, 287936, 289002, 289922, 291357, 291848, 293331, 3930]
musicbrainz: ('99 150 906 2550 5765 8983 12536 16458 19579 23152 26433 29749 33148 37021 40727 44015 47429 50967 54012 57564 60887 64739 68271 70960 74756 77940 81841 84885 87316 89761 92631 96546 100844 104870 109036 112602 116510 120857 124424 127823 131794 135521 138871 142549 145802 149968 154301 157345 160918 164339 168811 172050 175617 179580 184296 187751 191436 195205 198486 201837 205605 209597 213170 217190 220088 224211 228147 231526 235956 238993 242511 245297 248035 251003 252716 255607 257969 259829 262162 263430 264384 266286 267268 268641 269741 271218 272667 275363 276846 278240 280608 282287 285888 286787 287936 289002 289922 291357 291848 293331 294750', 'xgSwcrRQDTRbLcOvasPxDdvI.DU-')

CD record:
Device type    : Removable CD-ROM
Version        : 0
Response Format: 2
Capabilities   : 
Vendor_info    : 'FREECOM_'
Identification : 'DVD+/-RW16H4    '
Revision       : 'FR00'
Device seems to be: Generic mmc2 DVD-R/DVD-RW.
Using generic SCSI-3/mmc   CD-R/CD-RW driver (mmc_cdr).
Driver flags   : MMC-3 SWABAUDIO BURNFREE 
Supported modes: TAO PACKET SAO SAO/R96R RAW/R96R
first: 1 last 99
track:   1 lba:         0 (        0) 00:02:00 adr: 1 control: 0 mode: -1
track:   2 lba:       756 (     3024) 00:12:06 adr: 1 control: 0 mode: -1
track:   3 lba:      2400 (     9600) 00:34:00 adr: 1 control: 0 mode: -1
track:   4 lba:      5615 (    22460) 01:16:65 adr: 1 control: 0 mode: -1
track:   5 lba:      8833 (    35332) 01:59:58 adr: 1 control: 0 mode: -1
track:   6 lba:     12386 (    49544) 02:47:11 adr: 1 control: 0 mode: -1
track:   7 lba:     16308 (    65232) 03:39:33 adr: 1 control: 0 mode: -1
track:   8 lba:     19429 (    77716) 04:21:04 adr: 1 control: 0 mode: -1
track:   9 lba:     23002 (    92008) 05:08:52 adr: 1 control: 0 mode: -1
track:  10 lba:     26283 (   105132) 05:52:33 adr: 1 control: 0 mode: -1
track:  11 lba:     29599 (   118396) 06:36:49 adr: 1 control: 0 mode: -1
track:  12 lba:     32998 (   131992) 07:21:73 adr: 1 control: 0 mode: -1
track:  13 lba:     36871 (   147484) 08:13:46 adr: 1 control: 0 mode: -1
track:  14 lba:     40577 (   162308) 09:03:02 adr: 1 control: 0 mode: -1
track:  15 lba:     43865 (   175460) 09:46:65 adr: 1 control: 0 mode: -1
track:  16 lba:     47279 (   189116) 10:32:29 adr: 1 control: 0 mode: -1
track:  17 lba:     50817 (   203268) 11:19:42 adr: 1 control: 0 mode: -1
track:  18 lba:     53862 (   215448) 12:00:12 adr: 1 control: 0 mode: -1
track:  19 lba:     57414 (   229656) 12:47:39 adr: 1 control: 0 mode: -1
track:  20 lba:     60737 (   242948) 13:31:62 adr: 1 control: 0 mode: -1
track:  21 lba:     64589 (   258356) 14:23:14 adr: 1 control: 0 mode: -1
track:  22 lba:     68121 (   272484) 15:10:21 adr: 1 control: 0 mode: -1
track:  23 lba:     70810 (   283240) 15:46:10 adr: 1 control: 0 mode: -1
track:  24 lba:     74606 (   298424) 16:36:56 adr: 1 control: 0 mode: -1
track:  25 lba:     77790 (   311160) 17:19:15 adr: 1 control: 0 mode: -1
track:  26 lba:     81691 (   326764) 18:11:16 adr: 1 control: 0 mode: -1
track:  27 lba:     84735 (   338940) 18:51:60 adr: 1 control: 0 mode: -1
track:  28 lba:     87166 (   348664) 19:24:16 adr: 1 control: 0 mode: -1
track:  29 lba:     89611 (   358444) 19:56:61 adr: 1 control: 0 mode: -1
track:  30 lba:     92481 (   369924) 20:35:06 adr: 1 control: 0 mode: -1
track:  31 lba:     96396 (   385584) 21:27:21 adr: 1 control: 0 mode: -1
track:  32 lba:    100694 (   402776) 22:24:44 adr: 1 control: 0 mode: -1
track:  33 lba:    104720 (   418880) 23:18:20 adr: 1 control: 0 mode: -1
track:  34 lba:    108886 (   435544) 24:13:61 adr: 1 control: 0 mode: -1
track:  35 lba:    112452 (   449808) 25:01:27 adr: 1 control: 0 mode: -1
track:  36 lba:    116360 (   465440) 25:53:35 adr: 1 control: 0 mode: -1
track:  37 lba:    120707 (   482828) 26:51:32 adr: 1 control: 0 mode: -1
track:  38 lba:    124274 (   497096) 27:38:74 adr: 1 control: 0 mode: -1
track:  39 lba:    127673 (   510692) 28:24:23 adr: 1 control: 0 mode: -1
track:  40 lba:    131644 (   526576) 29:17:19 adr: 1 control: 0 mode: -1
track:  41 lba:    135371 (   541484) 30:06:71 adr: 1 control: 0 mode: -1
track:  42 lba:    138721 (   554884) 30:51:46 adr: 1 control: 0 mode: -1
track:  43 lba:    142399 (   569596) 31:40:49 adr: 1 control: 0 mode: -1
track:  44 lba:    145652 (   582608) 32:24:02 adr: 1 control: 0 mode: -1
track:  45 lba:    149818 (   599272) 33:19:43 adr: 1 control: 0 mode: -1
track:  46 lba:    154151 (   616604) 34:17:26 adr: 1 control: 0 mode: -1
track:  47 lba:    157195 (   628780) 34:57:70 adr: 1 control: 0 mode: -1
track:  48 lba:    160768 (   643072) 35:45:43 adr: 1 control: 0 mode: -1
track:  49 lba:    164189 (   656756) 36:31:14 adr: 1 control: 0 mode: -1
track:  50 lba:    168661 (   674644) 37:30:61 adr: 1 control: 0 mode: -1
track:  51 lba:    171900 (   687600) 38:14:00 adr: 1 control: 0 mode: -1
track:  52 lba:    175467 (   701868) 39:01:42 adr: 1 control: 0 mode: -1
track:  53 lba:    179430 (   717720) 39:54:30 adr: 1 control: 0 mode: -1
track:  54 lba:    184146 (   736584) 40:57:21 adr: 1 control: 0 mode: -1
track:  55 lba:    187601 (   750404) 41:43:26 adr: 1 control: 0 mode: -1
track:  56 lba:    191286 (   765144) 42:32:36 adr: 1 control: 0 mode: -1
track:  57 lba:    195055 (   780220) 43:22:55 adr: 1 control: 0 mode: -1
track:  58 lba:    198336 (   793344) 44:06:36 adr: 1 control: 0 mode: -1
track:  59 lba:    201687 (   806748) 44:51:12 adr: 1 control: 0 mode: -1
track:  60 lba:    205455 (   821820) 45:41:30 adr: 1 control: 0 mode: -1
track:  61 lba:    209447 (   837788) 46:34:47 adr: 1 control: 0 mode: -1
track:  62 lba:    213020 (   852080) 47:22:20 adr: 1 control: 0 mode: -1
track:  63 lba:    217040 (   868160) 48:15:65 adr: 1 control: 0 mode: -1
track:  64 lba:    219938 (   879752) 48:54:38 adr: 1 control: 0 mode: -1
track:  65 lba:    224061 (   896244) 49:49:36 adr: 1 control: 0 mode: -1
track:  66 lba:    227997 (   911988) 50:41:72 adr: 1 control: 0 mode: -1
track:  67 lba:    231376 (   925504) 51:27:01 adr: 1 control: 0 mode: -1
track:  68 lba:    235806 (   943224) 52:26:06 adr: 1 control: 0 mode: -1
track:  69 lba:    238843 (   955372) 53:06:43 adr: 1 control: 0 mode: -1
track:  70 lba:    242361 (   969444) 53:53:36 adr: 1 control: 0 mode: -1
track:  71 lba:    245147 (   980588) 54:30:47 adr: 1 control: 0 mode: -1
track:  72 lba:    247885 (   991540) 55:07:10 adr: 1 control: 0 mode: -1
track:  73 lba:    250853 (  1003412) 55:46:53 adr: 1 control: 0 mode: -1
track:  74 lba:    252566 (  1010264) 56:09:41 adr: 1 control: 0 mode: -1
track:  75 lba:    255457 (  1021828) 56:48:07 adr: 1 control: 0 mode: -1
track:  76 lba:    257819 (  1031276) 57:19:44 adr: 1 control: 0 mode: -1
track:  77 lba:    259679 (  1038716) 57:44:29 adr: 1 control: 0 mode: -1
track:  78 lba:    262012 (  1048048) 58:15:37 adr: 1 control: 0 mode: -1
track:  79 lba:    263280 (  1053120) 58:32:30 adr: 1 control: 0 mode: -1
track:  80 lba:    264234 (  1056936) 58:45:09 adr: 1 control: 0 mode: -1
track:  81 lba:    266136 (  1064544) 59:10:36 adr: 1 control: 0 mode: -1
track:  82 lba:    267118 (  1068472) 59:23:43 adr: 1 control: 0 mode: -1
track:  83 lba:    268491 (  1073964) 59:41:66 adr: 1 control: 0 mode: -1
track:  84 lba:    269591 (  1078364) 59:56:41 adr: 1 control: 0 mode: -1
track:  85 lba:    271068 (  1084272) 60:16:18 adr: 1 control: 0 mode: -1
track:  86 lba:    272517 (  1090068) 60:35:42 adr: 1 control: 0 mode: -1
track:  87 lba:    275213 (  1100852) 61:11:38 adr: 1 control: 0 mode: -1
track:  88 lba:    276696 (  1106784) 61:31:21 adr: 1 control: 0 mode: -1
track:  89 lba:    278090 (  1112360) 61:49:65 adr: 1 control: 0 mode: -1
track:  90 lba:    280458 (  1121832) 62:21:33 adr: 1 control: 0 mode: -1
track:  91 lba:    282137 (  1128548) 62:43:62 adr: 1 control: 0 mode: -1
track:  92 lba:    285738 (  1142952) 63:31:63 adr: 1 control: 0 mode: -1
track:  93 lba:    286637 (  1146548) 63:43:62 adr: 1 control: 0 mode: -1
track:  94 lba:    287786 (  1151144) 63:59:11 adr: 1 control: 0 mode: -1
track:  95 lba:    288852 (  1155408) 64:13:27 adr: 1 control: 0 mode: -1
track:  96 lba:    289772 (  1159088) 64:25:47 adr: 1 control: 0 mode: -1
track:  97 lba:    291207 (  1164828) 64:44:57 adr: 1 control: 0 mode: -1
track:  98 lba:    291698 (  1166792) 64:51:23 adr: 1 control: 0 mode: -1
track:  99 lba:    293181 (  1172724) 65:11:06 adr: 1 control: 0 mode: -1
track:lout lba:    294600 (  1178400) 65:30:00 adr: 1 control: 0 mode: -1
